<svg xmlns="http://www.w3.org/2000/svg" viewBox="0 0 16 16" id="Twitter--Streamline-Font-Awesome" height="16" width="16">
  <desc>
    Twitter Streamline Icon: https://streamlinehq.com
  </desc>
<!--! Font Awesome Free 6.5.2 by @fontawesome - https://fontawesome.com License - https://fontawesome.com/license/free (Icons: CC BY 4.0, Fonts: SIL OFL 1.1, Code: MIT License) Copyright 2024 Fonticons, Inc.-->
  <path d="M14.3553125 4.741125c0.01015625 0.142125 0.01015625 0.28428125 0.01015625 0.42640625 0 4.335 -3.29946875 9.3299375 -9.3299375 9.3299375 -1.857875 0 -3.58375 -0.53809375 -5.03553125 -1.4720625 0.26396875 0.0304375 0.51775 0.04059375 0.791875 0.04059375 1.53296875 0 2.94415625 -0.51775 4.0710625 -1.401 -1.441625 -0.03046875 -2.64975 -0.974625 -3.066 -2.274125 0.2030625 0.0304375 0.40609375 0.05075 0.6193125 0.05075 0.29440625 0 0.58884375 -0.040625 0.8629375 -0.11165625 -1.50253125 -0.30459375 -2.62946875 -1.624375 -2.62946875 -3.21828125v-0.04059375c0.43653125 0.24365625 0.9441875 0.3959375 1.48221875 0.41621875 -0.88325 -0.58884375 -1.46190625 -1.59390625 -1.46190625 -2.73096875 0 -0.609125 0.16240625 -1.1675 0.4466875 -1.6548125 1.61421875 1.98984375 4.040625 3.2893125 6.76140625 3.43146875 -0.05075 -0.24365625 -0.08121875 -0.4974375 -0.08121875 -0.75125 0 -1.807125 1.4619375 -3.2791875 3.2791875 -3.2791875 0.94415625 0 1.7969375 0.3959375 2.3959375 1.03553125 0.74109375 -0.142125 1.45175 -0.41625 2.08121875 -0.791875 -0.2436875 0.7614375 -0.7614375 1.40103125 -1.441625 1.80709375 0.65990625 -0.07103125 1.2995 -0.2538125 1.8883125 -0.50759375 -0.446625 0.64971875 -1.00503125 1.228375 -1.644625 1.69540625z" fill="#ffffff" stroke-width="0.0313"></path>
</svg>